<svg xmlns="http://www.w3.org/2000/svg" xmlns:xlink="http://www.w3.org/1999/xlink" version="1.1" width="256" height="256" viewBox="0 0 256 256" xml:space="preserve">

<defs>
</defs>
<g style="stroke: none; stroke-width: 0; stroke-dasharray: none; stroke-linecap: butt; stroke-linejoin: miter; stroke-miterlimit: 10; fill: none; fill-rule: nonzero; opacity: 1;" transform="translate(1.4065934065934016 1.4065934065934016) scale(2.81 2.81)" >
	<path d="M 45.738 70.98 c -2.323 3.451 1.186 8.394 5.706 5.26 c 1.07 -0.757 2.449 -1.194 4.183 -1.266 L 90 75.092 V 19.889 H 52.86 L 45.738 70.98" style="stroke: none; stroke-width: 1; stroke-dasharray: none; stroke-linecap: butt; stroke-linejoin: miter; stroke-miterlimit: 10; fill: rgb(230,76,60); fill-rule: nonzero; opacity: 1;" transform=" matrix(1 0 0 1 0 0) " stroke-linecap="round" />
	<path d="M 44.262 70.98 c 2.323 3.451 -1.186 8.394 -5.706 5.26 c -1.07 -0.757 -2.449 -1.194 -4.183 -1.266 L 0 75.092 V 19.889 h 37.14 L 44.262 70.98" style="stroke: none; stroke-width: 1; stroke-dasharray: none; stroke-linecap: butt; stroke-linejoin: miter; stroke-miterlimit: 10; fill: rgb(230,76,60); fill-rule: nonzero; opacity: 1;" transform=" matrix(1 0 0 1 0 0) " stroke-linecap="round" />
	<path d="M 45.024 72.932 c 0.962 -4.374 4.935 -6.268 10.053 -6.268 h 27.556 V 12.762 H 55.077 c -5.118 0 -8.768 1.559 -10.077 5.283" style="stroke: none; stroke-width: 1; stroke-dasharray: none; stroke-linecap: butt; stroke-linejoin: miter; stroke-miterlimit: 10; fill: rgb(236,220,156); fill-rule: nonzero; opacity: 1;" transform=" matrix(1 0 0 1 0 0) " stroke-linecap="round" />
	<path d="M 44.976 72.932 c -0.962 -4.374 -4.935 -6.268 -10.053 -6.268 H 7.367 V 12.762 h 27.556 c 5.118 0 8.768 1.559 10.077 5.283 L 44.976 72.932 z" style="stroke: none; stroke-width: 1; stroke-dasharray: none; stroke-linecap: butt; stroke-linejoin: miter; stroke-miterlimit: 10; fill: rgb(251,239,193); fill-rule: nonzero; opacity: 1;" transform=" matrix(1 0 0 1 0 0) " stroke-linecap="round" />
	<line x1="0" y1="-27.4435" x2="0" y2="27.4435" style="stroke: none; stroke-width: 1; stroke-dasharray: none; stroke-linecap: butt; stroke-linejoin: miter; stroke-miterlimit: 10; fill: none; fill-rule: nonzero; opacity: 1;" transform=" matrix(1 0 0 1 0 0) "/>
	<path d="M 12.526 22.762 c 2.55 -0.414 5.1 -0.63 7.65 -0.777 c 2.55 -0.16 5.1 -0.202 7.65 -0.222 c 1.288 0.023 2.521 0.009 3.854 0.067 c 1.322 0.099 2.665 0.255 3.954 0.701 c 1.286 0.419 2.542 1.068 3.521 2.036 c 0.987 0.954 1.623 2.209 1.847 3.478 c -0.645 -1.121 -1.447 -2.086 -2.469 -2.718 c -0.986 -0.673 -2.137 -1.038 -3.301 -1.288 c -2.344 -0.487 -4.826 -0.268 -7.405 -0.278 c -2.55 -0.02 -5.1 -0.063 -7.65 -0.222 C 17.626 23.392 15.076 23.176 12.526 22.762 z" style="stroke: none; stroke-width: 1; stroke-dasharray: none; stroke-linecap: butt; stroke-linejoin: miter; stroke-miterlimit: 10; fill: rgb(171,157,103); fill-rule: nonzero; opacity: 1;" transform=" matrix(1 0 0 1 0 0) " stroke-linecap="round" />
	<path d="M 12.526 30.762 c 2.55 -0.414 5.1 -0.63 7.65 -0.777 c 2.55 -0.16 5.1 -0.202 7.65 -0.222 c 1.288 0.023 2.521 0.009 3.854 0.067 c 1.322 0.099 2.665 0.255 3.954 0.701 c 1.286 0.419 2.542 1.068 3.521 2.036 c 0.987 0.954 1.623 2.209 1.847 3.478 c -0.645 -1.121 -1.447 -2.086 -2.469 -2.718 c -0.986 -0.673 -2.137 -1.038 -3.301 -1.288 c -2.344 -0.487 -4.826 -0.268 -7.405 -0.278 c -2.55 -0.02 -5.1 -0.063 -7.65 -0.222 C 17.626 31.392 15.076 31.176 12.526 30.762 z" style="stroke: none; stroke-width: 1; stroke-dasharray: none; stroke-linecap: butt; stroke-linejoin: miter; stroke-miterlimit: 10; fill: rgb(171,157,103); fill-rule: nonzero; opacity: 1;" transform=" matrix(1 0 0 1 0 0) " stroke-linecap="round" />
	<path d="M 12.526 38.762 c 2.55 -0.414 5.1 -0.63 7.65 -0.777 c 2.55 -0.16 5.1 -0.202 7.65 -0.222 c 1.288 0.023 2.521 0.009 3.854 0.067 c 1.322 0.099 2.665 0.255 3.954 0.701 c 1.286 0.419 2.542 1.068 3.521 2.036 c 0.987 0.954 1.623 2.209 1.847 3.478 c -0.645 -1.121 -1.447 -2.086 -2.469 -2.718 c -0.986 -0.673 -2.137 -1.038 -3.301 -1.288 c -2.344 -0.487 -4.826 -0.268 -7.405 -0.278 c -2.55 -0.02 -5.1 -0.063 -7.65 -0.222 C 17.626 39.392 15.076 39.176 12.526 38.762 z" style="stroke: none; stroke-width: 1; stroke-dasharray: none; stroke-linecap: butt; stroke-linejoin: miter; stroke-miterlimit: 10; fill: rgb(171,157,103); fill-rule: nonzero; opacity: 1;" transform=" matrix(1 0 0 1 0 0) " stroke-linecap="round" />
	<path d="M 12.526 46.762 c 2.55 -0.414 5.1 -0.63 7.65 -0.777 c 2.55 -0.16 5.1 -0.202 7.65 -0.222 c 1.288 0.023 2.521 0.009 3.854 0.067 c 1.322 0.099 2.665 0.255 3.954 0.701 c 1.286 0.419 2.542 1.068 3.521 2.036 c 0.987 0.954 1.623 2.209 1.847 3.478 c -0.645 -1.121 -1.447 -2.086 -2.469 -2.718 c -0.986 -0.673 -2.137 -1.038 -3.301 -1.288 c -2.344 -0.487 -4.826 -0.268 -7.405 -0.278 c -2.55 -0.02 -5.1 -0.063 -7.65 -0.222 C 17.626 47.392 15.076 47.176 12.526 46.762 z" style="stroke: none; stroke-width: 1; stroke-dasharray: none; stroke-linecap: butt; stroke-linejoin: miter; stroke-miterlimit: 10; fill: rgb(171,157,103); fill-rule: nonzero; opacity: 1;" transform=" matrix(1 0 0 1 0 0) " stroke-linecap="round" />
	<path d="M 12.526 54.762 c 2.55 -0.414 5.1 -0.63 7.65 -0.777 c 2.55 -0.16 5.1 -0.202 7.65 -0.222 c 1.288 0.023 2.521 0.009 3.854 0.067 c 1.322 0.099 2.665 0.255 3.954 0.701 c 1.286 0.419 2.542 1.068 3.521 2.036 c 0.987 0.954 1.623 2.209 1.847 3.478 c -0.645 -1.121 -1.447 -2.086 -2.469 -2.718 c -0.986 -0.673 -2.137 -1.038 -3.301 -1.288 c -2.344 -0.487 -4.826 -0.268 -7.405 -0.278 c -2.55 -0.02 -5.1 -0.063 -7.65 -0.222 C 17.626 55.392 15.076 55.176 12.526 54.762 z" style="stroke: none; stroke-width: 1; stroke-dasharray: none; stroke-linecap: butt; stroke-linejoin: miter; stroke-miterlimit: 10; fill: rgb(171,157,103); fill-rule: nonzero; opacity: 1;" transform=" matrix(1 0 0 1 0 0) " stroke-linecap="round" />
	<path d="M 78 22.762 c -2.55 0.414 -5.1 0.63 -7.65 0.777 c -2.55 0.16 -5.1 0.202 -7.65 0.222 c -2.58 0.01 -5.061 -0.21 -7.405 0.278 c -1.164 0.25 -2.315 0.615 -3.301 1.288 c -1.022 0.632 -1.823 1.597 -2.469 2.718 c 0.223 -1.269 0.86 -2.524 1.847 -3.478 c 0.979 -0.968 2.234 -1.617 3.521 -2.036 c 1.289 -0.446 2.632 -0.602 3.954 -0.701 c 1.333 -0.058 2.566 -0.044 3.854 -0.067 c 2.55 0.02 5.1 0.063 7.65 0.222 C 72.9 22.132 75.45 22.348 78 22.762 z" style="stroke: none; stroke-width: 1; stroke-dasharray: none; stroke-linecap: butt; stroke-linejoin: miter; stroke-miterlimit: 10; fill: rgb(171,157,103); fill-rule: nonzero; opacity: 1;" transform=" matrix(1 0 0 1 0 0) " stroke-linecap="round" />
	<path d="M 78 30.762 c -2.55 0.414 -5.1 0.63 -7.65 0.777 c -2.55 0.16 -5.1 0.202 -7.65 0.222 c -2.58 0.01 -5.061 -0.21 -7.405 0.278 c -1.164 0.25 -2.315 0.615 -3.301 1.288 c -1.022 0.632 -1.823 1.597 -2.469 2.718 c 0.223 -1.269 0.86 -2.524 1.847 -3.478 c 0.979 -0.968 2.234 -1.617 3.521 -2.036 c 1.289 -0.446 2.632 -0.602 3.954 -0.701 c 1.333 -0.058 2.566 -0.044 3.854 -0.067 c 2.55 0.02 5.1 0.063 7.65 0.222 C 72.9 30.132 75.45 30.348 78 30.762 z" style="stroke: none; stroke-width: 1; stroke-dasharray: none; stroke-linecap: butt; stroke-linejoin: miter; stroke-miterlimit: 10; fill: rgb(171,157,103); fill-rule: nonzero; opacity: 1;" transform=" matrix(1 0 0 1 0 0) " stroke-linecap="round" />
	<path d="M 78 38.762 c -2.55 0.414 -5.1 0.63 -7.65 0.777 c -2.55 0.16 -5.1 0.202 -7.65 0.222 c -2.58 0.01 -5.061 -0.21 -7.405 0.278 c -1.164 0.25 -2.315 0.615 -3.301 1.288 c -1.022 0.632 -1.823 1.597 -2.469 2.718 c 0.223 -1.269 0.86 -2.524 1.847 -3.478 c 0.979 -0.968 2.234 -1.617 3.521 -2.036 c 1.289 -0.446 2.632 -0.602 3.954 -0.701 c 1.333 -0.058 2.566 -0.044 3.854 -0.067 c 2.55 0.02 5.1 0.063 7.65 0.222 C 72.9 38.132 75.45 38.348 78 38.762 z" style="stroke: none; stroke-width: 1; stroke-dasharray: none; stroke-linecap: butt; stroke-linejoin: miter; stroke-miterlimit: 10; fill: rgb(171,157,103); fill-rule: nonzero; opacity: 1;" transform=" matrix(1 0 0 1 0 0) " stroke-linecap="round" />
	<path d="M 78 46.762 c -2.55 0.414 -5.1 0.63 -7.65 0.777 c -2.55 0.16 -5.1 0.202 -7.65 0.222 c -2.58 0.01 -5.061 -0.21 -7.405 0.278 c -1.164 0.25 -2.315 0.615 -3.301 1.288 c -1.022 0.632 -1.823 1.597 -2.469 2.718 c 0.223 -1.269 0.86 -2.524 1.847 -3.478 c 0.979 -0.968 2.234 -1.617 3.521 -2.036 c 1.289 -0.446 2.632 -0.602 3.954 -0.701 c 1.333 -0.058 2.566 -0.044 3.854 -0.067 c 2.55 0.02 5.1 0.063 7.65 0.222 C 72.9 46.132 75.45 46.348 78 46.762 z" style="stroke: none; stroke-width: 1; stroke-dasharray: none; stroke-linecap: butt; stroke-linejoin: miter; stroke-miterlimit: 10; fill: rgb(171,157,103); fill-rule: nonzero; opacity: 1;" transform=" matrix(1 0 0 1 0 0) " stroke-linecap="round" />
	<path d="M 78 54.762 c -2.55 0.414 -5.1 0.63 -7.65 0.777 c -2.55 0.16 -5.1 0.202 -7.65 0.222 c -2.58 0.01 -5.061 -0.21 -7.405 0.278 c -1.164 0.25 -2.315 0.615 -3.301 1.288 c -1.022 0.632 -1.823 1.597 -2.469 2.718 c 0.223 -1.269 0.86 -2.524 1.847 -3.478 c 0.979 -0.968 2.234 -1.617 3.521 -2.036 c 1.289 -0.446 2.632 -0.602 3.954 -0.701 c 1.333 -0.058 2.566 -0.044 3.854 -0.067 c 2.55 0.02 5.1 0.063 7.65 0.222 C 72.9 54.132 75.45 54.348 78 54.762 z" style="stroke: none; stroke-width: 1; stroke-dasharray: none; stroke-linecap: butt; stroke-linejoin: miter; stroke-miterlimit: 10; fill: rgb(171,157,103); fill-rule: nonzero; opacity: 1;" transform=" matrix(1 0 0 1 0 0) " stroke-linecap="round" />
</g>
</svg>